<?xml version="1.0" encoding="UTF-8" standalone="no"?>
<!-- Created with Inkscape (http://www.inkscape.org/) -->

<svg
   width="500"
   height="500"
   viewBox="0 0 132.29167 132.29167"
   version="1.1"
   id="svg5"
   inkscape:version="1.1 (c68e22c387, 2021-05-23)"
   sodipodi:docname="favicon.svg"
   xmlns:inkscape="http://www.inkscape.org/namespaces/inkscape"
   xmlns:sodipodi="http://sodipodi.sourceforge.net/DTD/sodipodi-0.dtd"
   xmlns:xlink="http://www.w3.org/1999/xlink"
   xmlns="http://www.w3.org/2000/svg"
   xmlns:svg="http://www.w3.org/2000/svg">
  <sodipodi:namedview
     id="namedview7"
     pagecolor="#2e2e2e"
     bordercolor="#666666"
     borderopacity="1.0"
     inkscape:pageshadow="2"
     inkscape:pageopacity="0"
     inkscape:pagecheckerboard="false"
     inkscape:document-units="px"
     showgrid="false"
     units="px"
     showborder="true"
     borderlayer="false"
     inkscape:showpageshadow="true"
     inkscape:snap-bbox="true"
     inkscape:bbox-paths="true"
     inkscape:bbox-nodes="true"
     inkscape:snap-bbox-edge-midpoints="true"
     inkscape:snap-bbox-midpoints="true"
     inkscape:object-paths="true"
     inkscape:snap-intersection-paths="true"
     inkscape:snap-smooth-nodes="true"
     inkscape:snap-midpoints="true"
     inkscape:snap-object-midpoints="true"
     inkscape:snap-center="true"
     inkscape:snap-text-baseline="true"
     inkscape:snap-page="true"
     inkscape:snap-global="true"
     inkscape:zoom="0.64"
     inkscape:cx="8.59375"
     inkscape:cy="510.9375"
     inkscape:current-layer="layer1" />
  <defs
     id="defs2">
    <linearGradient
       id="gradient_0"
       gradientUnits="userSpaceOnUse"
       x1="750.1604"
       y1="623.00214"
       x2="528.6911"
       y2="431.32486"
       gradientTransform="scale(0.13229167)">
      <stop
         offset="0"
         stop-color="#FA0000"
         id="stop831" />
      <stop
         offset="1"
         stop-color="#FD7500"
         id="stop833" />
    </linearGradient>
    <linearGradient
       id="gradient_1"
       gradientUnits="userSpaceOnUse"
       x1="454.6232"
       y1="659.52887"
       x2="327.73257"
       y2="421.64642"
       gradientTransform="scale(0.13229167)">
      <stop
         offset="0"
         stop-color="#FC3700"
         id="stop848" />
      <stop
         offset="1"
         stop-color="#FE9301"
         id="stop850" />
    </linearGradient>
    <linearGradient
       inkscape:collect="always"
       xlink:href="#gradient_0"
       id="linearGradient1109"
       gradientUnits="userSpaceOnUse"
       gradientTransform="matrix(0.12672613,0,0,0.13229167,1.2978541,0)"
       x1="750.1604"
       y1="623.00214"
       x2="528.6911"
       y2="431.32486" />
    <linearGradient
       inkscape:collect="always"
       xlink:href="#gradient_1"
       id="linearGradient1111"
       gradientUnits="userSpaceOnUse"
       gradientTransform="matrix(0.12672613,0,0,0.13229167,1.2978541,0)"
       x1="454.6232"
       y1="659.52887"
       x2="327.73257"
       y2="421.64642" />
  </defs>
  <g
     inkscape:label="Слой 1"
     inkscape:groupmode="layer"
     id="layer1">
    <g
       id="g35511"
       transform="matrix(1.6169626,0,0,1.6169626,-40.920568,-43.143006)">
      <path
         d="m 40.297062,31.022264 c 0.562917,-0.572426 1.153207,-0.83476 1.811803,-1.24751 c 0.911668,-0.571368 1.805594,-1.161786 2.781892,-1.614355 c 0.435051,-0.201481 0.909514,-0.320675 1.367122,-0.452306 c 1.027495,-0.295539 2.067283,-0.524801 3.139513,-0.51263 c 0.72386,0.0082 1.518812,0.0095 2.230886,0.109538 c 2.807491,0.394229 5.504857,1.66661 7.692023,3.538008 c 0.717904,0.614363 1.387906,1.350566 2.033195,2.04933 l 0.558988,0.693076 c 0.05411,0.06985 0.04042,0.04789 0.133697,0.104114 c 1.692807,-0.388276 3.312368,-0.643202 5.051304,-0.540411 c 0.686982,0.04061 1.401971,0.160998 2.081856,0.277415 l 1.138888,0.220795 c 0.06058,0.01164 0.300468,0.07157 0.358509,0.05292 c 0.01736,-0.0056 0.219489,-0.340916 0.243567,-0.377296 c 0.488149,-0.737129 1.104798,-1.393032 1.745272,-1.988212 c 1.518052,-1.410758 3.291078,-2.593446 5.212627,-3.311393 c 3.989465,-1.490662 8.497874,-0.950383 12.06306,1.425708 l 1.171837,0.790707 c 0.639587,0.411427 1.366741,0.787268 1.597382,1.602846 c 0.144469,0.511175 0.06197,1.00621 -0.210619,1.450446 c -0.208337,0.339593 -0.500188,0.551259 -0.877958,0.637778 c -0.532884,0.121973 -0.936887,0.06125 -1.388538,-0.258763 C 89.52839,33.172401 89.321953,32.382487 88.702263,31.832948 c -0.478518,-0.42426 -1.086803,-0.752211 -1.655297,-1.027907 c -0.387149,-0.187721 -0.785195,-0.39317 -1.189705,-0.533796 c -1.756425,-0.610262 -3.868949,-0.520833 -5.66732,-0.19566 c -2.443786,0.441854 -5.444661,2.163366 -6.893141,4.27699 l -0.140286,0.220001 c 1.104799,0.623491 2.107709,1.306909 3.13153,2.061898 c 0.760864,0.561049 1.466221,1.113499 2.062214,1.874308 c 0.276137,0.352293 0.530222,0.727075 0.762131,1.112573 c 0.233176,0.387747 0.439487,0.818224 0.788744,1.108737 c 0.269673,0.224499 0.67393,0.343032 0.989858,0.496226 l 1.676459,0.86995 c 1.003925,0.542131 2.016594,1.243674 2.95348,1.906852 c 6.626889,4.691195 11.834571,12.153106 14.11704,20.165351 c 0.89963,3.157935 1.51704,6.390482 1.78177,9.67621 c 0.44328,5.500688 -0.0613,11.307763 -1.21189,16.688726 c -0.39956,1.869149 -0.881245,3.881703 -1.75845,5.575036 c -0.653778,1.262063 -1.530975,2.632869 -2.930665,3.060039 c -0.945631,0.28866 -1.895696,0.07766 -2.738045,-0.412353 C 92.208015,98.42315 91.706559,97.931555 91.332464,97.369315 C 91.071281,96.976673 90.320556,95.178168 90.082437,95.049184 C 86.50103,101.33608 79.714845,105.34042 73.08428,107.10029 c -3.929143,1.04286 -8.471008,1.15332 -12.454517,0.38709 c -3.722327,-0.7161 -7.328066,-2.26457 -10.574409,-4.26945 C 47.40551,101.58135 44.89722,99.116888 43.058043,96.550165 c -0.350144,-0.488685 -0.62666,-1.019969 -0.951206,-1.524926 c -0.571155,1.531805 -1.273724,3.251729 -2.82029,3.955918 c -0.891264,0.405871 -1.89671,0.426773 -2.802675,0.03956 C 34.886363,98.337827 33.949983,96.342472 33.34119,94.772302 C 32.904239,93.645309 32.646351,92.455081 32.361598,91.281257 C 31.813254,89.020393 31.410645,86.75675 31.181524,84.435296 l -0.18388,-2.9767 c -0.30655,-4.645687 -0.180077,-9.530557 0.793686,-14.089063 c 0.51172,-2.395273 1.347226,-4.820179 2.27372,-7.069931 c 2.898608,-7.038711 7.737771,-12.759664 13.82354,-16.979636 c 0.890378,-0.617406 1.863635,-1.148424 2.819277,-1.645841 c 0.572802,-0.298185 1.241029,-0.570839 1.757945,-0.961364 c 0.400201,-0.302418 0.686602,-0.774567 0.969202,-1.189963 C 53.792,38.998129 54.156085,38.491717 54.57973,38.022875 c 1.380429,-1.527307 3.115436,-2.429801 4.788981,-3.522927 c -2.063102,-2.559844 -5.139125,-4.346575 -8.344662,-4.641189 c -2.397279,-0.220266 -5.341254,0.227277 -7.230233,1.91651 c -0.579519,0.518186 -0.846531,1.309422 -1.405013,1.80975 c -0.239766,0.214709 -0.469774,0.308107 -0.760357,0.416321 l -0.06945,0.03016 c -0.282726,0.113374 -0.773409,-0.08176 -1.033705,-0.213519 c -0.404379,-0.204784 -0.648961,-0.640818 -0.77556,-1.077909 c -0.101761,-0.351367 -0.07692,-0.71755 0.09327,-1.0414 z"
         id="path823"
         style="stroke-width:0.129479" />
      <path
         fill="#fdb752"
         d="m 42.496014,55.013094 c 0.166898,-0.457994 0.519323,-0.881988 0.783801,-1.288785 c 1.431497,-2.201731 3.04941,-4.152371 4.865523,-6.01861 c 1.193,-1.225814 2.521849,-2.262849 3.888337,-3.263635 c 0.64415,-0.471752 1.326316,-1.052248 2.085406,-1.297782 c 0.425293,-0.137583 1.11481,0.0024 1.57001,0.01045 l 4.156237,0.03175 l 2.885047,-0.04789 l -0.0754,0.01058 c -0.778606,0.103585 -1.686598,-0.02183 -2.436817,0.159544 c -0.744896,0.180181 -1.497142,0.707496 -2.200726,1.031346 c -0.977186,0.449924 -2.016086,0.829998 -2.96235,1.340379 L 53.69265,46.50528 c -3.136092,1.835282 -6.064227,3.971131 -8.905046,6.268243 C 44.42694,53.065232 44.039411,53.3486 43.715752,53.68396 c -0.413634,0.428492 -0.740714,0.978429 -1.219738,1.329134 z"
         id="path825"
         style="stroke-width:0.129479" />
      <path
         fill="#ffffff"
         d="m 62.730375,43.138594 l 1.240903,-0.0034 c -0.237257,8.254238 -17.350356,9.029251 -23.323989,16.057695 l 0.209776,-0.931465 c 0.116461,-0.433123 0.377896,-0.90805 0.576984,-1.307836 c 0.331008,-0.664501 0.661636,-1.318022 1.061965,-1.940454 c 2.014468,-2.907358 11.883066,-10.221962 17.7532,-11.766527 c 0.750218,-0.181372 1.627154,0.0062 2.405759,-0.09743 z"
         id="path827"
         style="stroke-width:0.129479"
         sodipodi:nodetypes="ccccccccc" />
      <path
         fill="#fdb752"
         d="M 68.148551,56.979213 L 68.14779,43.158834 c 1.654156,-0.119724 3.345951,-9.26e-4 5.003782,-0.0053 l 3.882762,-0.02289 c 0.507158,0.0077 1.068808,-0.02818 1.566462,0.06615 c 0.298947,0.05675 0.563804,0.271595 0.811681,0.446749 c -3.105926,4.78159 -1.535234,6.498152 -1.87718,12.690294 c -0.843363,0.917046 -3.244331,0.18539 -3.551768,1.443219 c -0.05082,0.207698 0.05668,0.598423 0.0487,0.806386 c -0.523125,-0.02064 -1.567693,0.467528 -2.083342,0.379686 C 71.113128,58.82079 70.4636,58.616466 69.660029,58.331509 c -0.536685,-0.190367 -0.985438,-1.131237 -1.511478,-1.352296 z"
         id="path829"
         style="stroke-width:0.129479"
         sodipodi:nodetypes="cccccccccccc" />
      <path
         fill="url(#gradient_0)"
         d="m 79.412477,43.643551 c 5.512966,3.972719 10.306763,9.401705 12.956733,15.892331 c 0.311239,0.762264 0.546697,1.590013 0.80357,2.37609 c 0.598655,1.832372 1.133185,3.688424 1.469644,5.59607 c 0.453553,2.57228 0.551892,5.127096 0.497907,7.734036 c -0.01863,0.900377 -0.01635,1.859624 -0.145229,2.749021 c -0.114686,1.734476 -0.388416,3.424899 -0.704216,5.127493 c -0.206437,1.113102 -0.399188,2.274755 -0.689137,3.367087 c -0.234698,0.883709 -0.554048,1.760406 -0.850333,2.624006 c -0.479405,1.397661 -0.983648,2.752857 -1.621714,4.08424 c -0.226966,0.473604 -0.533263,1.382448 -0.899376,1.725613 l -0.132048,0.113903 l -0.01584,0.01574 c -0.700539,0.0303 -1.384226,-0.196583 -2.054735,-0.388141 C 86.561605,94.242204 85.120855,93.72759 83.744356,93.052638 C 83.361643,92.946937 82.92938,92.651926 82.567578,92.463411 c -2.589902,-1.349772 -5.077537,-3.061759 -7.134429,-5.201444 c -2.222903,-2.312326 -3.960445,-4.93104 -5.219976,-7.931812 C 69.923097,78.639063 69.611984,77.963979 69.38147,77.246561 c -0.617283,-1.920875 -0.947151,-4.003939 -1.113416,-6.019006 c -0.174882,-2.117064 -0.122038,-4.246563 -0.11342,-6.36905 l -0.006,-7.879292 c 1.465611,0.862951 3.304869,1.469368 5.67505,1.488943 c 1.261543,0.03014 0.894135,-2.396101 1.972491,-3.625057 c -1.447994,-6.002447 0.597616,-9.284639 3.616302,-11.199548 z"
         id="path838"
         style="fill:url(#linearGradient1109);stroke-width:0.129479"
         sodipodi:nodetypes="ccccscsccscccscccsccccccc" />
      <path
         d="m 75.796093,54.843099 l 0.583067,-0.397272 c 1.054108,-0.65524 2.246348,-0.972079 3.454428,-0.643863 c 1.333286,0.2032 2.600293,0.927364 3.409439,2.078037 c 0.874791,1.244204 1.240903,2.749418 1.003798,4.279636 c -0.215814,1.392899 -1.055882,2.757752 -2.150035,3.584046 c -1.116331,0.842962 -2.629821,1.139693 -3.973245,0.878417 C 76.916479,64.387282 75.508298,63.344691 74.814599,62.298529 C 74.09923,61.219558 73.781274,59.962258 73.8786,58.656274 l 0.0548,-0.319883 c 0.008,-0.207963 -7.1e-4,-0.351629 0.05012,-0.559327 c 0.307437,-1.257829 0.969201,-2.016919 1.812563,-2.933965 z"
         id="path840"
         style="stroke-width:0.129479"
         sodipodi:nodetypes="ccccsccccccsc" />
      <path
         fill="#645b4a"
         d="m 75.796093,54.843099 c 1.095439,-0.921488 2.694501,-1.441834 4.037495,-1.041135 l -0.0095,0.07832 c 0.09955,2.481512 -3.602366,4.536792 -5.421085,4.215738 l -0.142566,-0.03493 c -0.185401,0.103188 -0.308959,0.329936 -0.36928,0.536972 l -0.01255,0.05821 c 2.4e-5,-0.473096 0.03306,-0.615273 0.104938,-0.87921 c 0.307437,-1.257829 0.969201,-2.016919 1.812564,-2.933965 z"
         id="path842"
         style="stroke-width:0.129479"
         sodipodi:nodetypes="cccccccccc" />
      <path
         d="m 82.052055,74.956725 c 1.538962,-0.09353 2.667205,0.139303 3.955757,1.058201 c 1.032691,0.736468 1.802806,1.918891 2.029265,3.20847 c 0.288682,1.643856 0.140793,3.106076 -0.776324,4.512204 c -0.814342,1.248437 -2.052077,2.034646 -3.467988,2.311929 c -1.300336,0.221853 -2.418568,0.07766 -3.550359,-0.666485 c -1.425542,-0.937287 -2.256612,-2.191941 -2.608784,-3.892815 c -0.263084,-1.270132 0.09771,-3.044163 0.777971,-4.129087 c 0.818144,-1.304793 2.21492,-2.078699 3.640462,-2.402417 z"
         id="path844"
         style="stroke-width:0.129479" />
      <path
         fill="#fb0400"
         d="m 83.744356,93.052638 c 0.304776,-0.07461 0.437205,0.143404 0.707005,0.20148 c 0.166011,0.03572 0.297173,0.14605 0.45406,0.209947 l 0.158408,0.05001 c 0.127233,0.06099 0.200608,0.117078 0.348497,0.148431 c 0.102014,0.02156 0.159548,0.01045 0.246609,0.07488 c 0.07452,0.05517 0.03396,0.03863 0.132302,0.05662 c 0.15131,0.02765 0.317829,0.07303 0.455833,0.143404 l 0.178684,0.105437 c 0.08998,0.0385 0.227728,0.06628 0.309466,0.01614 l -0.150551,-0.06588 c -0.08516,-0.04524 -0.139019,-0.08692 -0.233049,-0.118401 l -0.07527,-0.02275 C 86.19537,93.74943 86.136951,93.685533 86.099693,93.554167 l -0.02598,-0.119062 c -0.179318,0.01984 -0.24268,-0.111125 -0.403116,-0.118798 c -0.103788,-0.005 -0.05094,0.0081 -0.14282,-0.0205 l -0.210112,-0.06271 l -0.168926,0.01495 c -0.236092,-0.01404 -0.807753,-0.262349 -0.941956,-0.470576 l -0.06514,-0.103584 c -0.0531,-0.05014 -0.135343,-0.05292 -0.195158,-0.09393 c -0.149663,-0.102394 -0.283486,-0.29554 -0.423898,-0.418704 c -0.364971,-0.32041 -0.734505,-0.362479 -0.954121,-0.852619 l -0.0493,-0.11602 l -0.09593,-0.203465 c -0.145989,-0.35388 -0.169179,-0.759883 -0.03054,-1.116674 l 0.03168,-0.07911 c 0.118489,-0.406929 0.375363,-0.697706 0.630336,-1.021556 c 0.143834,-0.182695 0.260802,-0.294085 0.459382,-0.413147 l 0.09238,-0.0545 c 0.230641,-0.14142 0.382713,-0.24818 0.657074,-0.248709 c 0.278671,-6.61e-4 0.70257,0.03638 0.964766,-0.04432 c 0.07655,-0.02355 0.207325,-0.154517 0.279051,-0.202539 c 0.514002,-0.344223 0.864399,-0.819415 1.314784,-1.240234 c 0.294512,-0.275167 0.645035,-0.457465 0.881127,-0.803143 c 0.198326,-0.290513 0.2698,-0.609865 0.409325,-0.926042 c 0.113548,-0.257041 0.139021,-0.502045 0.214422,-0.767819 c 0.108985,-0.383513 0.267266,-0.734086 0.339753,-1.130697 c -0.163857,-0.428757 0.03764,-0.70776 0.09796,-1.137443 c 0.03625,-0.258101 0.02826,-0.517261 0.07844,-0.7747 c 0.03561,-0.182563 0.0896,-0.403225 0.05462,-0.590815 c -0.01787,-0.09578 -0.08985,-0.174228 -0.112279,-0.269346 c -0.05893,-0.248973 -0.01242,-0.5334 0.09505,-0.758693 c 0.05906,-0.123825 0.03878,-0.06522 0.07224,-0.175815 c 0.161955,-0.537237 0.681787,-0.804201 0.815229,-1.30347 c 0.08921,-0.333772 0.455834,-0.984779 0.669494,-1.237589 c 0.329995,-0.390525 0.776071,-0.695457 0.951206,-1.19962 c 0.175643,-0.505487 0.37511,-0.858838 0.835126,-1.14472 c 0.200481,-0.124487 0.367506,-0.186532 0.598147,-0.118798 l 0.0683,0.02064 l 0.229628,0.05953 c 0.227473,0.07858 0.492711,0.233891 0.594092,0.467915 c 0.144975,0.334434 0.110758,0.683684 -0.02065,1.012825 c -0.222912,0.558403 -0.549484,1.070504 -0.353693,1.695979 c 0.141553,0.452306 0.585982,0.959115 1.002024,1.155568 l 0.09606,0.04233 c 0.06615,0.1778 0.116587,0.240374 0.263337,0.353484 l 0.04182,-0.0598 c 0.0863,-0.122238 0.08478,-0.191558 0.06526,-0.338931 c -0.02838,-0.214974 0.03029,-0.103849 0.06146,-0.256382 c 0.01951,-0.09618 8.87e-4,-0.2794 0.0078,-0.384175 l 0.117727,-0.0075 c -0.114686,1.734476 -0.388415,3.424899 -0.704216,5.127493 c -0.206437,1.113102 -0.399188,2.274755 -0.689137,3.367087 c -0.234697,0.883709 -0.554047,1.760406 -0.850333,2.624006 c -0.479405,1.397661 -0.983647,2.752857 -1.621714,4.08424 c -0.226966,0.473604 -0.533263,1.382448 -0.899375,1.725613 l -0.132049,0.113903 l -0.01584,0.01574 c -0.700577,0.03026 -1.384264,-0.196617 -2.054773,-0.388175 c -1.466094,-0.418836 -2.906844,-0.93345 -4.283343,-1.608402 z"
         id="path846"
         style="stroke-width:0.129479" />
      <path
         fill="url(#gradient_1)"
         d="m 63.971278,43.135154 l 0.172347,0.05808 l 0.01483,13.536216 l 0.02902,7.121922 c 0.03574,3.081206 0.123939,6.249591 -0.297173,9.305926 c -0.710426,5.15739 -3.164351,10.083403 -6.674539,13.769975 c -3.35482,3.523456 -7.71648,6.190589 -12.293068,7.524618 c -0.868328,0.253074 -1.765675,0.517392 -2.666698,0.593989 C 41.584729,93.867955 40.993424,92.636055 40.42227,91.402568 C 40.042979,90.58355 39.64772,89.769956 39.343577,88.916146 c -1.593328,-4.474104 -2.22379,-9.313863 -2.198572,-14.07041 c 0.01736,-3.265355 0.317576,-6.464962 1.091493,-9.638639 c 0.585221,-2.400432 1.447973,-4.78962 2.62057,-6.945709 c 0.02125,0.373922 0.121212,0.443164 0.338582,0.195035 c 0.317547,-0.370488 0.641169,-0.73665 0.98646,-1.074907 c 1.421994,-1.393164 3.031035,-2.531534 4.645654,-3.661437 c 0.78418,-0.548878 1.506773,-1.111514 2.350008,-1.567656 c 0.661586,-0.346765 2.377763,-1.551517 2.953606,-1.882114 l 3.177532,-1.912673 c 0.362183,-0.199892 0.747557,-0.351498 1.114809,-0.540543 l 4.150282,-2.243402 l 1.865282,-1.095375 c 0.421237,-0.239448 1.397662,-0.861881 1.531992,-1.343158 z"
         id="path855"
         style="fill:url(#linearGradient1111);stroke-width:0.129479"
         sodipodi:nodetypes="ccccccccccccccccccccccsc" />
      <path
         fill="#645b4a"
         d="m 44.396906,79.044008 c 0.413127,-1.338659 1.310855,-2.456524 2.42503,-3.218921 c 1.243437,-0.850767 2.278283,-0.918633 3.700911,-0.608144 c -0.09923,0.308239 -0.14865,0.622961 -0.280825,0.918765 c -0.494486,1.106223 -1.615759,1.934369 -2.631976,2.465785 c -0.305536,0.159808 -0.615888,0.285882 -0.944236,0.385101 l -0.0991,0.03082 c -0.600302,0.174625 -1.562406,0.179123 -2.169804,0.02659 z"
         id="path857"
         style="stroke-width:0.129479" />
      <path
         d="m 50.522847,75.216943 c 1.469643,0.433784 2.776442,1.327811 3.541108,2.73685 c 0.212519,0.391451 0.354199,0.790442 0.466986,1.222771 l 0.03245,0.119195 c 0.371561,1.450843 -0.01774,3.137694 -0.753007,4.393407 c -0.67355,1.15054 -1.949175,2.053034 -3.193879,2.36048 c -1.410462,0.348456 -2.738932,0.03836 -3.955883,-0.746125 c -1.05094,-0.677466 -1.97566,-1.979745 -2.251797,-3.241146 c -0.237484,-1.08413 -0.235457,-1.92696 -0.01192,-3.018367 c 0.607398,0.152533 1.569502,0.148035 2.169805,-0.02659 l 0.0991,-0.03082 c 0.328348,-0.09922 0.6387,-0.225293 0.944236,-0.385101 c 1.016217,-0.531416 2.137491,-1.359562 2.631976,-2.465785 c 0.132175,-0.295804 0.181598,-0.610526 0.280825,-0.918765 z"
         id="path859"
         style="stroke-width:0.129479" />
      <path
         d="m 48.225049,57.765951 c 0.116081,-0.307049 0.268912,-0.591608 0.42808,-0.876167 c 0.78,-1.395148 1.939544,-2.747831 3.494854,-3.170106 c 0.604736,-0.164174 1.388538,-0.399917 1.959946,-0.04987 c 0.313394,0.118137 0.646177,0.186267 0.953487,0.316442 c 1.392848,0.590286 2.468245,1.616207 3.11138,3.033845 c 0.213027,0.469503 0.331136,0.967052 0.420098,1.476772 c -0.118742,2.142464 -0.66658,3.574918 -2.221763,5.016765 c -1.054868,0.978032 -2.442013,1.257961 -3.812555,1.168135 c -0.19744,-0.01296 -0.379039,-0.05318 -0.570268,-0.105436 l -0.09783,-0.0258 c -1.021919,-0.28112 -1.727784,-0.854604 -2.446701,-1.632876 c -0.26245,-0.284163 -0.52414,-0.557742 -0.713215,-0.903156 c -0.568546,-0.801147 -0.829176,-1.751182 -0.838046,-2.946264 z"
         id="path861"
         style="stroke-width:0.129479"
         sodipodi:nodetypes="ccscccccccccccc" />
      <path
         fill="#97836a"
         d="m 48.225049,57.765951 c 0.116081,-0.307049 0.268912,-0.591608 0.42808,-0.876167 c 0.78,-1.395148 1.939544,-2.747831 3.494854,-3.170106 c 0.604736,-0.164174 1.388538,-0.399917 1.959946,-0.04987 c 0.13433,0.452835 0.09644,0.725885 -0.123685,1.142074 c -0.580025,1.096037 -2.016593,2.12897 -3.039906,2.724547 c -0.355974,0.207037 -0.742996,0.430081 -1.142056,0.530358 c -0.52414,0.13163 -1.120259,0.06363 -1.561393,-0.280459 z"
         id="path863"
         style="stroke-width:0.129479" />
      <path
         fill="#fdb752"
         d="m 63.971278,43.135154 l 0.172347,0.05808 l 0.01483,13.536216 c -0.411418,0.682201 -3.72325,2.06518 -5.565558,1.767417 c -0.08896,-0.50972 -0.207071,-1.007269 -0.420098,-1.476772 c -0.643135,-1.417638 -1.718532,-2.443559 -3.11138,-3.033845 c -0.30731,-0.130175 -0.640093,-0.198305 -0.953487,-0.316442 c -2.921447,-0.335145 -5.167498,2.489393 -5.4548,3.219976 c -0.159168,0.284559 -0.311999,0.569118 -0.42808,0.876167 l -0.33253,1.30228 c -0.951136,1.158171 -1.72209,2.080368 -2.692014,2.99515 c -0.22856,0.108866 -0.356471,-0.002 -0.322759,-0.240974 c 0.136901,-1.088294 0.05323,-2.083517 0.05246,-2.907148 c -0.02401,-0.167561 0.06378,-0.464066 0.164117,-0.572094 c 1.595918,-1.728969 3.332122,-3.959841 4.083455,-6.190752 c 8.051616,-6.374329 10.475179,-6.65297 14.793502,-9.017265 z"
         id="path865"
         style="stroke-width:0.129479"
         sodipodi:nodetypes="ccccccccccccccccc" />
    </g>
  </g>
</svg>
